<svg width="29" height="30" viewBox="0 0 29 30" fill="none" xmlns="http://www.w3.org/2000/svg"><path fill-rule="evenodd" clip-rule="evenodd" d="M27.118 20.376C27.3154 19.9323 27.8352 19.7325 28.2791 19.93C28.7229 20.1275 28.9226 20.6473 28.7251 21.0911C26.3173 26.5031 20.934 30.0001 15.0107 30C1.68774 29.9875 -5.01588 13.8068 4.39656 4.37558C9.41935 -0.833434 18.1285 -1.46822 23.8851 2.88361L23.661 2.27762C23.4924 1.82209 23.7251 1.31612 24.1807 1.14761C24.6364 0.979149 25.1423 1.21181 25.3107 1.66735L26.5364 4.98081C26.6377 5.25493 26.5963 5.56147 26.4259 5.79889C26.2557 6.03636 25.9772 6.17368 25.6861 6.16512L22.1547 6.06321C20.9905 5.98288 21.0374 4.31976 22.2054 4.30487L22.8747 4.32422C14.2372 -2.11373 1.71255 4.20155 1.7591 14.9893C1.95383 29.2602 21.1518 33.3265 27.118 20.376ZM24.239 14.11H25.2475C25.0623 11.9366 24.1979 9.95417 22.8676 8.37624L22.158 9.0859C21.8145 9.42939 21.2576 9.42939 20.9142 9.0859C20.5707 8.74248 20.5707 8.18556 20.9142 7.84208L21.6238 7.13242C20.0459 5.80217 18.0635 4.93771 15.8901 4.75254V5.76107C15.8436 6.92802 14.177 6.92714 14.131 5.76107V4.75254C11.9576 4.93771 9.97521 5.80217 8.39728 7.13242L9.10694 7.84208C9.45043 8.1855 9.45043 8.74242 9.10694 9.0859C8.76346 9.42939 8.2066 9.42939 7.86312 9.0859L7.15346 8.37624C5.82321 9.95417 4.95875 11.9365 4.77358 14.11H5.78211C6.94906 14.1565 6.94818 15.823 5.78211 15.869H4.77358C4.95875 18.0425 5.82321 20.0248 7.1534 21.6028L7.86312 20.8931C8.2066 20.5496 8.76346 20.5495 9.10694 20.8931C9.45043 21.2365 9.45043 21.7933 9.10694 22.1369L8.39723 22.8466C9.97515 24.1768 11.9575 25.0413 14.131 25.2264V24.2179C14.1775 23.0509 15.844 23.0518 15.89 24.2179V25.2264C18.0634 25.0412 20.0458 24.1768 21.6237 22.8466L20.914 22.1368C20.5705 21.7933 20.5705 21.2365 20.914 20.8929C21.2575 20.5496 21.8144 20.5496 22.1579 20.893L22.8675 21.6027C24.1978 20.0248 25.0622 18.0425 25.2474 15.869H24.2389C23.072 15.8226 23.0729 14.156 24.239 14.11ZM18.0072 17.9862C17.6637 18.3296 17.1069 18.3297 16.7634 17.9862L14.3887 15.6114C14.2237 15.4466 14.131 15.2228 14.131 14.9896V11.1197C14.1775 9.9527 15.844 9.95358 15.8901 11.1197V14.6253L18.0071 16.7423C18.3507 17.0858 18.3507 17.6427 18.0072 17.9862Z" fill="white"></path></svg>