<svg width="30" height="30" viewBox="0 0 30 30" fill="none" xmlns="http://www.w3.org/2000/svg"><path fill-rule="evenodd" clip-rule="evenodd" d="M22.5932 8.2043C22.108 8.2043 21.7143 7.81113 21.7143 7.32539V0H8.50371C8.01855 0 7.6248 0.39375 7.6248 0.878906V29.1211C7.6248 29.6063 8.01855 30 8.50371 30H29.1211C29.6063 30 30 29.6063 30 29.1211V8.2043H22.5932ZM16.534 9.73477C16.1906 9.39141 16.1906 8.83477 16.534 8.49199C16.8768 8.14863 17.4334 8.14863 17.7768 8.49199L18.5572 9.27246L19.3377 8.49199C19.6811 8.14863 20.2377 8.14863 20.5805 8.49199C20.9238 8.83477 20.9238 9.39141 20.5805 9.73477L19.8 10.5152L20.5805 11.2957C20.9238 11.6391 20.9238 12.1951 20.5805 12.5385C20.2368 12.8822 19.6815 12.8822 19.3377 12.5385L18.5572 11.758L17.7768 12.5385C17.4335 12.8817 16.8783 12.8828 16.534 12.5385C16.1906 12.1951 16.1906 11.6391 16.534 11.2957L17.3145 10.5152L16.534 9.73477ZM15.9205 22.5498C15.9205 24.0041 17.1035 25.1865 18.5572 25.1865C20.0109 25.1865 21.1939 24.0041 21.1939 22.5498C21.1939 21.0961 20.0109 19.9131 18.5572 19.9131C17.1035 19.9131 15.9205 21.0961 15.9205 22.5498ZM25.5557 26.8119C25.0931 26.9237 24.6113 26.6384 24.498 26.1592L23.4926 21.9088C22.9436 19.5891 20.9256 17.8881 18.5572 17.7281C18.5115 17.7252 18.4658 17.7223 18.4195 17.7205C16.8369 17.6543 15.3551 17.0859 14.134 16.0775C12.9129 15.0691 12.0744 13.7215 11.71 12.1805L10.9061 8.7832C10.7941 8.31094 11.0865 7.8375 11.5588 7.72559C12.0311 7.61367 12.5045 7.90605 12.6164 8.37832L13.4203 11.7756C13.9799 14.1398 16.0658 15.8625 18.4934 15.9645L18.5149 15.9655C18.5291 15.9662 18.5433 15.9668 18.5572 15.968C20.1152 16.0459 21.5736 16.6125 22.7789 17.6068C24 18.6152 24.8379 19.9629 25.2029 21.5039L26.2084 25.7543C26.3203 26.2266 26.0279 26.7 25.5557 26.8119ZM17.6783 22.5498C17.6783 22.0652 18.0727 21.6709 18.5572 21.6709C19.0418 21.6709 19.4361 22.0652 19.4361 22.5498C19.4361 23.0344 19.0418 23.4287 18.5572 23.4287C18.0727 23.4287 17.6783 23.0344 17.6783 22.5498ZM23.4721 0.410742V6.44648H29.4768L23.4721 0.410742ZM4.88672 23.3353H0C0.0369141 23.6646 0.13125 23.9874 0.279492 24.2833L1.65703 27.3899C1.80586 27.6876 2.11055 27.8757 2.44336 27.8757C2.77617 27.8757 3.08086 27.6876 3.22969 27.3899L4.60723 24.2833C4.75547 23.9874 4.8498 23.6646 4.88672 23.3353ZM4.92188 4.02803V6.66475H0V4.02803C0 3.54287 0.39375 3.14912 0.878906 3.14912H4.04297C4.52812 3.14912 4.92188 3.54287 4.92188 4.02803ZM4.92188 8.42256H0V21.5774H4.92188V8.42256Z" fill="white"></path></svg>