<svg width="30" height="27" viewBox="0 0 30 27" fill="none" xmlns="http://www.w3.org/2000/svg"><path fill-rule="evenodd" clip-rule="evenodd" d="M22.3823 0.130771L14.4412 4.99241V18.9928L22.3923 23.7163C22.9784 24.0645 23.7207 23.6423 23.7207 22.9608V0.880302C23.7207 0.193525 22.9681 -0.227881 22.3823 0.130771ZM7.53727 19.706L7.48406 19.7028C7.06641 19.6775 6.66363 19.6008 6.28113 19.4804L3.60785 24.1091C3.36293 24.5331 3.51193 25.0755 3.93908 25.3151L6.57053 26.7909C6.99029 27.0263 7.52145 26.8805 7.76209 26.4638L11.665 19.706H7.53727ZM2.84355 8.95645V14.8604C2.84355 15.1979 2.87994 15.5275 2.9475 15.8463H1.66969C0.747539 15.8463 0 15.099 0 14.1772V9.63972C0 8.71786 0.747539 7.97056 1.66969 7.97056H2.94797C2.88018 8.28854 2.84355 8.61813 2.84355 8.95645ZM12.6829 17.9482H7.59059C5.94 17.8481 4.60195 16.5105 4.60195 14.8604V8.95651C4.60195 7.30645 5.94 5.96888 7.59059 6.06901H12.6829V17.9482ZM26.9596 18.8363C27.1313 19.0079 27.3562 19.0938 27.5812 19.0938C27.8062 19.0938 28.0312 19.0079 28.2029 18.8363C28.5463 18.4931 28.5463 17.9365 28.2029 17.5933L26.4294 15.8204C26.0861 15.4772 25.5293 15.4772 25.186 15.8204C24.8426 16.1636 24.8426 16.7201 25.186 17.0633L26.9596 18.8363ZM25.8076 8.54688C25.5826 8.54688 25.3576 8.4611 25.1859 8.28942C24.8426 7.94624 24.8426 7.38972 25.1859 7.04647L26.9595 5.27349C27.3029 4.93024 27.8595 4.93024 28.2029 5.27349C28.5462 5.61667 28.5462 6.17319 28.2029 6.51644L26.4293 8.28942C26.2577 8.46104 26.0326 8.54688 25.8076 8.54688ZM26.6126 12.9338H29.1208C29.6064 12.9338 30 12.5403 30 12.0549C30 11.5695 29.6064 11.176 29.1208 11.176H26.6126C26.127 11.176 25.7334 11.5695 25.7334 12.0549C25.7334 12.5403 26.127 12.9338 26.6126 12.9338Z" fill="white"></path></svg>