<svg width="36" height="36" viewBox="0 0 36 36" fill="none" xmlns="http://www.w3.org/2000/svg"><path fill-rule="evenodd" clip-rule="evenodd" d="M36 15.1491L34.402 18L35.9997 20.8509L33.5989 23.0685L34.2378 26.2737L31.2692 27.6409L30.8864 30.8867L27.6406 31.2695L26.2735 34.2381L23.0683 33.5992L20.8507 36L17.9999 34.402L15.149 36L12.9315 33.5992L9.72626 34.2381L8.3591 31.2695L5.11334 30.8867L4.73048 27.6409L1.76189 26.2737L2.40082 23.0685L0 20.8509L1.59806 18L0 15.1491L2.40089 12.9316L1.76196 9.72633L4.73063 8.35917L5.11348 5.11341L8.35924 4.73055L9.7264 1.76196L12.9316 2.40082L15.1491 0L18 1.59799L20.851 0L23.0685 2.40075L26.2737 1.76189L27.6409 4.73048L30.8867 5.11334L31.2695 8.3591L34.2381 9.72626L33.5992 12.9315L36 15.1491ZM11.1768 21.1236C11.4208 20.9588 11.6174 20.7384 11.7664 20.4626C11.9153 20.1869 11.9898 19.8461 11.99 19.4402C11.99 19.1232 11.9425 18.8539 11.8474 18.6318C11.7522 18.4101 11.6158 18.2214 11.4384 18.066C11.2608 17.9108 11.0469 17.776 10.7964 17.6619C10.5459 17.5478 10.2653 17.4432 9.95477 17.3481C9.75818 17.2848 9.58226 17.2308 9.42701 17.1864C9.27155 17.1422 9.14006 17.0961 9.03234 17.0485C8.92434 17.0011 8.84208 16.9487 8.78506 16.8917C8.72789 16.8346 8.69941 16.7618 8.69941 16.6729C8.69941 16.5525 8.74849 16.467 8.84679 16.4161C8.94502 16.3654 9.0765 16.34 9.24145 16.34C9.44423 16.34 9.6518 16.3734 9.86428 16.4399C10.0766 16.5065 10.2685 16.5778 10.4396 16.6539C10.6425 16.7427 10.8391 16.8441 11.0293 16.9583L11.8281 15.4271C11.676 15.351 11.5047 15.2703 11.3145 15.1846C11.1244 15.099 10.9199 15.0198 10.7011 14.9468C10.4824 14.8741 10.2557 14.8137 10.0211 14.7662C9.78666 14.7186 9.54577 14.6948 9.29848 14.6948C8.96231 14.6948 8.64373 14.744 8.34272 14.8422C8.0415 14.9406 7.77354 15.0847 7.53905 15.2749C7.30441 15.4651 7.11907 15.7029 6.98273 15.9881C6.8464 16.2734 6.77834 16.6031 6.77834 16.9772C6.77834 17.2245 6.81166 17.4432 6.87818 17.6334C6.94477 17.8236 7.04777 17.9933 7.18727 18.1422C7.32663 18.2912 7.50424 18.4243 7.71982 18.5416C7.93533 18.659 8.19211 18.7684 8.49016 18.8697C8.69302 18.9394 8.8849 18.9997 9.06553 19.0503C9.24616 19.1012 9.40627 19.1519 9.54577 19.2025C9.68513 19.2533 9.79446 19.3118 9.87384 19.3784C9.95302 19.445 9.99267 19.5258 9.99267 19.6209C9.99267 19.7099 9.95309 19.7812 9.87384 19.8349C9.79446 19.8889 9.65341 19.9158 9.45063 19.9158C9.18436 19.9158 8.9228 19.8778 8.66602 19.8017C8.40923 19.7255 8.17938 19.64 7.97653 19.5449C7.7355 19.4372 7.50417 19.3135 7.28234 19.174L6.48352 20.8003C6.68637 20.9209 6.90673 21.0285 7.14445 21.1236C7.38218 21.2188 7.62947 21.3012 7.88625 21.3709C8.1431 21.4407 8.40136 21.4945 8.66138 21.5326C8.92118 21.5705 9.1748 21.5896 9.42209 21.5896C9.73273 21.5896 10.0418 21.553 10.3494 21.4802C10.6568 21.4073 10.9326 21.2884 11.1768 21.1236ZM16.5356 21.504L16.1267 20.1821H14.3293L13.9298 21.504H12.0373L14.3863 14.7519H16.0791L18.4186 21.504H16.5356ZM18.9796 14.7519V21.504V21.504H23.8962V19.8873H20.834V14.7519H18.9796ZM29.355 21.504H29.355H24.5429V14.7519H29.2695V16.3687H26.3974V17.3197H28.851V18.8222H26.3974V19.8874H29.355V21.504ZM14.605 18.9458L15.2328 16.8536L15.8319 18.9458H14.605Z" fill="white"></path></svg>