<svg width="153" height="50" viewBox="0 0 153 50" fill="none" xmlns="http://www.w3.org/2000/svg"><path fill-rule="evenodd" clip-rule="evenodd" d="M46.2924 4.30547L48.4916 6.43478L47.9848 9.54332C47.907 10.0201 48.204 10.2523 48.6481 10.0618L51.3718 8.89336L54.0956 10.0618C54.5396 10.2523 54.8201 10.0232 54.7223 9.54987L54.0771 6.43459L56.4334 4.28611C56.7904 3.96067 56.6946 3.62639 56.2192 3.53963L53.2443 2.99671L51.7896 0.318423C51.559 -0.106141 51.1851 -0.106141 50.9545 0.318423L49.4999 2.99671L46.5246 3.53988C46.0492 3.62651 45.9453 3.96914 46.2924 4.30547ZM25.9805 49.9485V43.2635H8.20436V14.4976H0V49.9485H25.9805ZM83.0058 49.9485H90.7544L72.1173 14.4976H64.3181L83.0058 49.9485ZM114.452 22.5653L103.061 49.9485H94.654L110.455 14.4976H118.558L134.41 49.9485H125.8L114.452 22.5653ZM136.79 40.0729L143.627 49.9485H152.439L144.488 38.5536C146.818 37.5407 148.615 36.0804 149.882 34.1728C151.148 32.2652 151.781 29.9947 151.781 27.3612C151.781 24.7277 151.156 22.4487 149.907 20.5242C148.658 18.5998 146.877 17.1142 144.564 16.0675C142.251 15.0209 139.525 14.4976 136.385 14.4976H129.254V21.2448C129.254 21.2448 137.084 20.898 139.431 21.6911C141.997 22.558 143.281 24.3949 143.395 26.5366C143.512 28.7337 143.534 29.9688 141.663 31.7166C139.793 33.4644 136.79 33.646 136.79 33.646V40.0729ZM29.3483 40.9909C32.713 48.368 43.2835 52.0694 51.2849 48.6854C61.1812 44.4997 64.2661 33.9046 61.1759 25.9599C57.177 15.6808 46.7419 13.0357 39.9001 15.1973C47.2829 16.5403 52.018 20.6904 52.966 28.1762C53.7109 34.0586 51.3021 38.8977 46.2154 42.0352C40.4361 45.5999 34.7467 44.9137 29.3483 40.9909ZM39.953 27.9641L41.738 28.2896C42.0232 28.3416 42.0809 28.5421 41.8663 28.7377L40.4525 30.0267L40.8396 31.8959C40.8985 32.1799 40.7302 32.3172 40.4637 32.203L38.8295 31.5021L37.1953 32.203C36.9288 32.3172 36.7506 32.178 36.7973 31.8919L37.1014 30.0267L35.7819 28.7491C35.5736 28.5473 35.6359 28.3416 35.9211 28.2896L37.706 27.9641L38.5789 26.3569C38.7174 26.1023 38.9416 26.1023 39.08 26.3569L39.953 27.9641Z" fill="white"></path></svg>