<svg width="29" height="30" viewBox="0 0 29 30" fill="none" xmlns="http://www.w3.org/2000/svg"><path d="M9.15409 30C10.221 30 10.512 29.5792 10.512 29.061C10.512 28.5971 10.4955 27.3686 10.4872 25.7407C4.95928 26.9182 3.79339 23.1209 3.79339 23.1209C2.88926 20.8671 1.58236 20.2641 1.58236 20.2641C-0.217662 19.0536 1.72149 19.0784 1.72149 19.0784C3.71727 19.2141 4.76541 21.0906 4.76541 21.0906C6.53731 24.0764 9.41735 23.2139 10.5536 22.7151C10.7325 21.4514 11.2444 20.5919 11.8121 20.1036C7.39869 19.615 2.75988 17.9357 2.75988 10.4536C2.75988 8.32208 3.53014 6.58018 4.80516 5.21366C4.58165 4.72015 3.91077 2.7345 4.97916 0.0449615C4.97916 0.0449615 6.64343 -0.478546 10.4441 2.04711C12.0341 1.61323 13.7232 1.39798 15.4126 1.38786C17.102 1.39761 18.791 1.61323 20.381 2.04711C24.1569 -0.478546 25.8212 0.0449615 25.8212 0.0449615C26.8892 2.7345 26.2187 4.72015 26.02 5.21366C27.2867 6.5798 28.057 8.32208 28.057 10.4536C28.057 17.9556 23.4118 19.6067 18.9897 20.0871C19.6854 20.6732 20.3311 21.8706 20.3311 23.7007C20.3311 26.3141 20.3064 28.4141 20.3064 29.0482C20.3064 29.5601 20.5276 29.9756 21.6725 29.9756L9.15409 30Z" fill="white"></path></svg>