<svg width="49" height="49" viewBox="0 0 49 49" fill="none" xmlns="http://www.w3.org/2000/svg"><path fill-rule="evenodd" clip-rule="evenodd" d="M22.2727 8.90909C22.2727 10.1392 23.2699 11.1364 24.5 11.1364C25.7301 11.1364 26.7273 10.1392 26.7273 8.90909V2.22727C26.7273 0.997184 25.7301 0 24.5 0C23.2699 0 22.2727 0.997184 22.2727 2.22727V8.90909ZM40.0909 26.7273H46.7727C48.0028 26.7273 49 25.7301 49 24.5C49 23.2699 48.0028 22.2727 46.7727 22.2727H40.0909C38.8608 22.2727 37.8636 23.2699 37.8636 24.5C37.8636 25.7301 38.8608 26.7273 40.0909 26.7273ZM24.5 49C23.2699 49 22.2727 48.0028 22.2727 46.7727V40.0909C22.2727 38.8608 23.2699 37.8636 24.5 37.8636C25.7301 37.8636 26.7273 38.8608 26.7273 40.0909V46.7727C26.7273 48.0028 25.7301 49 24.5 49ZM2.22727 26.7273H8.90909C10.1392 26.7273 11.1364 25.7301 11.1364 24.5C11.1364 23.2699 10.1392 22.2727 8.90909 22.2727H2.22727C0.997184 22.2727 0 23.2699 0 24.5C0 25.7301 0.997184 26.7273 2.22727 26.7273ZM26.7273 24.5C26.7273 25.7301 25.7301 26.7273 24.5 26.7273C23.2699 26.7273 22.2727 25.7301 22.2727 24.5C22.2727 23.2699 23.2699 22.2727 24.5 22.2727C25.7301 22.2727 26.7273 23.2699 26.7273 24.5ZM33.4091 24.5C33.4199 20.8142 36.4051 17.8289 40.0909 17.8182H41.0041C39.1893 13.353 35.647 9.81074 31.1818 7.99591V8.90909C31.1818 12.5994 28.1903 15.5909 24.5 15.5909C20.8097 15.5909 17.8182 12.5994 17.8182 8.90909V7.99591C13.353 9.81074 9.81074 13.353 7.99591 17.8182H8.90909C12.5994 17.8182 15.5909 20.8097 15.5909 24.5C15.5909 28.1903 12.5994 31.1818 8.90909 31.1818H7.99591C9.81074 35.647 13.353 39.1893 17.8182 41.0041V40.0909C17.8182 36.4006 20.8097 33.4091 24.5 33.4091C28.1903 33.4091 31.1818 36.4006 31.1818 40.0909V41.0041C35.647 39.1893 39.1893 35.647 41.0041 31.1818H40.0909C36.4051 31.1711 33.4199 28.1858 33.4091 24.5ZM24.5 31.1818C20.8097 31.1818 17.8182 28.1903 17.8182 24.5C17.8182 20.8097 20.8097 17.8182 24.5 17.8182C28.1903 17.8182 31.1818 20.8097 31.1818 24.5C31.1711 28.1858 28.1858 31.1711 24.5 31.1818Z" fill="url(#paint0_linear)"></path><defs><linearGradient id="paint0_linear" x1="0" y1="0" x2="0" y2="49" gradientUnits="userSpaceOnUse"><stop stop-color="#E37AFF"></stop><stop offset="1" stop-color="#21C1E0"></stop></linearGradient></defs></svg>