<svg width="153" height="50" viewBox="0 0 153 50" fill="none" xmlns="http://www.w3.org/2000/svg"><path fill-rule="evenodd" clip-rule="evenodd" d="M46.3402 4.3099L48.5416 6.44141L48.0342 9.55316C47.9564 10.0305 48.2537 10.2628 48.6982 10.0721L51.4248 8.90253L54.1513 10.0721C54.5958 10.2628 54.8766 10.0335 54.7787 9.55972L54.1329 6.44123L56.4916 4.29053C56.849 3.96475 56.753 3.63012 56.2772 3.54328L53.2991 2.9998L51.843 0.318751C51.6121 -0.10625 51.2379 -0.10625 51.007 0.318751L49.5509 2.9998L46.5725 3.54353C46.0967 3.63025 45.9927 3.97323 46.3402 4.3099ZM26.0073 50V43.3081H8.21282V14.5125H0V50H26.0073ZM83.0914 50H90.848L72.1917 14.5125H64.3844L83.0914 50ZM114.57 22.5885L103.167 50H94.7516L110.569 14.5125H118.68L134.548 50H125.93L114.57 22.5885ZM136.931 40.1142L143.775 50H152.596L144.637 38.5933C146.969 37.5794 148.769 36.1176 150.036 34.2081C151.303 32.2985 151.937 30.0256 151.937 27.3894C151.937 24.7532 151.312 22.4719 150.061 20.5454C148.811 18.6189 147.028 17.1318 144.713 16.0841C142.398 15.0364 139.669 14.5125 136.525 14.5125H129.387V21.2667C129.387 21.2667 137.225 20.9195 139.575 21.7135C142.144 22.5813 143.429 24.42 143.543 26.564C143.66 28.7633 143.682 29.9997 141.809 31.7493C139.937 33.4989 136.931 33.6807 136.931 33.6807V40.1142ZM29.3786 41.0331C32.7467 48.4178 43.3281 52.123 51.3378 48.7356C61.2442 44.5456 64.3324 33.9396 61.239 25.9867C57.236 15.697 46.7901 13.0492 39.9412 15.213C47.3317 16.5573 52.0717 20.7117 53.0206 28.2052C53.7663 34.0937 51.355 38.9378 46.2631 42.0785C40.4778 45.6469 34.7825 44.96 29.3786 41.0331ZM39.9941 27.9929L41.781 28.3188C42.0665 28.3708 42.1242 28.5715 41.9095 28.7673L40.4942 30.0576L40.8817 31.9288C40.9407 32.2131 40.7722 32.3506 40.5054 32.2362L38.8695 31.5346L37.2337 32.2362C36.9668 32.3506 36.7885 32.2112 36.8352 31.9248L37.1397 30.0576L35.8188 28.7787C35.6103 28.5768 35.6727 28.3708 35.9582 28.3188L37.7448 27.9929L38.6187 26.3841C38.7573 26.1292 38.9817 26.1292 39.1203 26.3841L39.9941 27.9929Z" fill="url(#paint0_linear)"></path><defs><linearGradient id="paint0_linear" x1="0" y1="0" x2="0" y2="50" gradientUnits="userSpaceOnUse"><stop stop-color="#E37AFF"></stop><stop offset="1" stop-color="#21C1E0"></stop></linearGradient></defs></svg>