<svg width="44" height="44" viewBox="0 0 44 44" fill="none" xmlns="http://www.w3.org/2000/svg"><path fill-rule="evenodd" clip-rule="evenodd" d="M32.6562 9.88281C32.6562 10.5947 33.2334 11.1719 33.9453 11.1719H43.8281V40.1328C43.8281 42.2652 42.0933 44 39.9609 44H19.7448C23.0619 41.6647 25.3365 37.9448 25.722 33.6875H36.5234C37.2353 33.6875 37.8125 33.1103 37.8125 32.3984C37.8125 31.6865 37.2353 31.1094 36.5234 31.1094H25.722C25.5552 29.2673 25.0357 27.5254 24.2299 25.9531H36.5234C37.2353 25.9531 37.8125 25.376 37.8125 24.6641C37.8125 23.9522 37.2353 23.375 36.5234 23.375H22.5316C19.9286 20.2276 15.9954 18.2188 11.6016 18.2188C11.167 18.2188 10.7372 18.2395 10.3125 18.278V3.86719C10.3125 1.73482 12.0473 0 14.1797 0H32.6562V9.88281ZM17.6172 18.2188H36.5234C37.2353 18.2188 37.8125 17.6416 37.8125 16.9297C37.8125 16.2178 37.2353 15.6406 36.5234 15.6406H17.6172C16.9053 15.6406 16.3281 16.2178 16.3281 16.9297C16.3281 17.6416 16.9053 18.2188 17.6172 18.2188ZM35.2344 0.754703V8.59375H43.0728L35.2344 0.754703ZM11.6016 20.7969C5.20446 20.7969 0 26.0013 0 32.3984C0 38.7955 5.20446 44 11.6016 44C17.9987 44 23.2031 38.7955 23.2031 32.3984C23.2031 26.0013 17.9987 20.7969 11.6016 20.7969ZM15.0391 33.6875H11.6016C10.8897 33.6875 10.3125 33.1103 10.3125 32.3984V27.2422C10.3125 26.5303 10.8897 25.9531 11.6016 25.9531C12.3135 25.9531 12.8906 26.5303 12.8906 27.2422V31.1094H15.0391C15.751 31.1094 16.3281 31.6865 16.3281 32.3984C16.3281 33.1103 15.751 33.6875 15.0391 33.6875Z" fill="url(#paint0_linear)"></path><defs><linearGradient id="paint0_linear" x1="0" y1="0" x2="0" y2="44" gradientUnits="userSpaceOnUse"><stop stop-color="#E37AFF"></stop><stop offset="1" stop-color="#21C1E0"></stop></linearGradient></defs></svg>