<svg width="42" height="46" viewBox="0 0 42 46" fill="none" xmlns="http://www.w3.org/2000/svg"><path d="M40.9391 35.5586C40.8306 35.2843 40.667 35.0352 40.4583 34.8268L33.7557 28.1242C32.8787 27.2771 31.4846 27.2892 30.6224 28.1514C29.7602 29.0136 29.7481 30.4077 30.5952 31.2847L33.485 34.1748H11.725L40.2779 11.334C41.0199 10.7411 41.3061 9.74407 40.9916 8.84788C40.6772 7.95169 39.8307 7.35209 38.8809 7.35277H8.51418L11.404 4.4627C11.9851 3.90151 12.2181 3.07047 12.0136 2.28899C11.809 1.50751 11.1987 0.897205 10.4172 0.692653C9.63574 0.488101 8.8047 0.72113 8.2435 1.30218L1.54091 8.00477C0.682977 8.88587 0.682977 10.29 1.54091 11.1711L8.2435 17.8737C9.12244 18.7314 10.5251 18.7314 11.404 17.8737C11.8234 17.4547 12.059 16.8862 12.059 16.2934C12.059 15.7006 11.8234 15.1322 11.404 14.7132L8.51418 11.8231H32.5094L3.95646 34.6638C3.2145 35.2567 2.92827 36.2538 3.24273 37.15C3.55719 38.0462 4.40367 38.6458 5.35343 38.6451H33.485L30.5952 41.5352C30.1758 41.9541 29.9402 42.5226 29.9402 43.1154C29.9402 43.7082 30.1758 44.2767 30.5952 44.6957C31.4734 45.555 32.8774 45.555 33.7557 44.6957L40.4583 37.9931C41.0848 37.3475 41.2732 36.3938 40.9391 35.5586Z" fill="url(#paint0_linear)"></path><defs><linearGradient id="paint0_linear" x1="0.897461" y1="0.619751" x2="0.897461" y2="45.3402" gradientUnits="userSpaceOnUse"><stop stop-color="#E37AFF"></stop><stop offset="1" stop-color="#21C1E0"></stop></linearGradient></defs></svg>