<svg width="660px" height="578px" viewBox="0 0 660 578" version="1.1" xmlns="http://www.w3.org/2000/svg"><defs><filter x="-11.7%" y="-11.7%" width="123.4%" height="123.4%" filterUnits="objectBoundingBox" id="filter-1"><feGaussianBlur stdDeviation="15" in="SourceGraphic"></feGaussianBlur></filter><filter x="-19.8%" y="-19.8%" width="139.6%" height="139.6%" filterUnits="objectBoundingBox" id="filter-2"><feGaussianBlur stdDeviation="15" in="SourceGraphic"></feGaussianBlur></filter><filter x="-34.6%" y="-34.6%" width="169.2%" height="169.2%" filterUnits="objectBoundingBox" id="filter-3"><feGaussianBlur stdDeviation="15" in="SourceGraphic"></feGaussianBlur></filter><filter x="-25.0%" y="-25.0%" width="150.0%" height="150.0%" filterUnits="objectBoundingBox" id="filter-4"><feGaussianBlur stdDeviation="15" in="SourceGraphic"></feGaussianBlur></filter></defs><g id="Desktop" stroke="none" stroke-width="1" fill="none" fill-rule="evenodd"><g transform="translate(-55.000000, -2004.000000)" id="Group-10"><g transform="translate(93.000000, 2049.000000)" id="Vector"><g id="Group-9-Copy-4" transform="translate(7.000000, 0.000000)" opacity="0.75"><g id="Group-13" fill="#2F91EE"><circle id="Oval" filter="url(#filter-1)" cx="192.5" cy="192.5" r="192.5"></circle></g><g id="Group-14" transform="translate(343.000000, 146.000000)" fill="#2DD577"><circle id="Oval-Copy" filter="url(#filter-2)" cx="113.5" cy="113.5" r="113.5"></circle></g><g id="Group-15" transform="translate(213.000000, 342.000000)" fill="#CA35F2"><circle id="Oval-Copy-2" filter="url(#filter-3)" cx="65" cy="65" r="65"></circle></g><g id="Group-16" transform="translate(0.000000, 308.000000)" fill="#F42849"><circle id="Oval-Copy-3" filter="url(#filter-4)" cx="90" cy="90" r="90"></circle></g></g><g id="Group-9-Copy-5"><g id="Group-13" transform="translate(7.000000, 0.000000)"><circle id="Oval" fill="#2F91EE" opacity="0.900000036" cx="192.5" cy="192.5" r="192.5"></circle><path d="M169.795,193.42 C174.265,193.42 177.895,190.96 177.895,186.58 C177.895,184.09 176.665,182.26 174.535,181.24 C176.185,180.37 177.355,178.78 177.355,176.53 C177.355,173.41 174.955,170.65 169.795,170.65 C164.635,170.65 162.205,173.41 162.205,176.53 C162.205,178.84 163.345,180.34 165.025,181.24 C162.925,182.23 161.695,184.09 161.695,186.58 C161.695,190.96 165.325,193.42 169.795,193.42 Z M169.795,179.86 C168.325,179.86 167.215,178.93 167.215,177.34 C167.215,175.66 168.265,174.73 169.795,174.73 C171.325,174.73 172.375,175.66 172.375,177.31 C172.375,178.9 171.265,179.86 169.795,179.86 Z M169.795,189.22 C167.815,189.22 166.645,187.99 166.645,186.34 C166.645,184.48 167.965,183.46 169.795,183.46 C171.625,183.46 172.885,184.54 172.885,186.34 C172.885,187.96 171.745,189.22 169.795,189.22 Z M196.195,193 L196.195,189.1 L198.655,189.1 L198.655,184.66 L196.195,184.66 L196.195,171.4 L190.465,171.4 L180.985,184.96 L180.985,189.1 L191.065,189.1 L191.065,193 L196.195,193 Z M191.425,184.66 L186.385,184.66 L191.425,177.04 L191.425,184.66 Z M205.765,181.69 C208.615,181.69 210.745,179.95 210.745,176.62 C210.745,173.29 208.615,171.55 205.765,171.55 C202.915,171.55 200.755,173.29 200.755,176.62 C200.755,179.95 202.915,181.69 205.765,181.69 Z M209.575,193 L221.125,171.88 L216.175,171.88 L204.625,193 L209.575,193 Z M205.735,178.66 C204.835,178.66 204.295,178.03 204.295,176.62 C204.295,175.18 204.835,174.55 205.735,174.55 C206.635,174.55 207.205,175.18 207.205,176.62 C207.205,178.03 206.635,178.66 205.735,178.66 Z M220.015,193.33 C222.865,193.33 224.995,191.59 224.995,188.26 C224.995,184.9 222.865,183.19 220.015,183.19 C217.165,183.19 215.035,184.9 215.035,188.26 C215.035,191.59 217.165,193.33 220.015,193.33 Z M219.985,190.3 C219.085,190.3 218.545,189.67 218.545,188.26 C218.545,186.85 219.085,186.19 219.985,186.19 C220.885,186.19 221.455,186.85 221.455,188.26 C221.455,189.67 220.885,190.3 219.985,190.3 Z" id="84%" fill="#FFFFFF" fill-rule="nonzero"></path><path d="M80.22,219 L80.22,215.052 L81.984,215.052 C84.518,215.052 85.428,213.554 85.428,212.168 C85.428,210.586 84.294,209.27 81.984,209.27 L78.624,209.27 L78.624,219 L80.22,219 Z M81.984,213.75 L80.22,213.75 L80.22,210.572 L81.984,210.572 C83.23,210.572 83.79,211.16 83.79,212.168 C83.79,213.148 83.23,213.75 81.984,213.75 Z M88.55,219 L88.55,214.94 C88.55,213.302 89.278,212.812 90.454,212.812 L90.86,212.812 L90.86,211.16 C89.768,211.16 88.998,211.636 88.55,212.406 L88.55,211.286 L86.954,211.286 L86.954,219 L88.55,219 Z M95.648,219.126 C97.538,219.126 98.756,218.048 99.19,216.704 L97.468,216.704 C97.174,217.306 96.628,217.782 95.648,217.782 C94.472,217.782 93.562,217.012 93.45,215.738 L99.344,215.738 C99.386,215.472 99.4,215.22 99.4,214.954 C99.4,212.686 97.846,211.16 95.648,211.16 C93.366,211.16 91.798,212.714 91.798,215.136 C91.798,217.558 93.436,219.126 95.648,219.126 Z M97.734,214.45 L93.464,214.45 C93.632,213.232 94.5,212.504 95.578,212.504 C96.768,212.504 97.706,213.26 97.734,214.45 Z M103.768,219.126 C105.588,219.126 106.722,218.146 106.722,216.844 C106.638,214.058 102.284,214.926 102.284,213.372 C102.284,212.854 102.732,212.504 103.586,212.504 C104.454,212.504 104.972,212.966 105.028,213.638 L106.624,213.638 C106.54,212.098 105.392,211.16 103.642,211.16 C101.822,211.16 100.674,212.154 100.674,213.386 C100.674,216.214 105.154,215.346 105.154,216.858 C105.154,217.39 104.664,217.782 103.74,217.782 C102.858,217.782 102.256,217.264 102.2,216.634 L100.548,216.634 C100.618,218.034 101.92,219.126 103.768,219.126 Z M111.524,219.126 C112.812,219.126 113.736,218.51 114.226,217.852 L114.226,219 L115.836,219 L115.836,211.286 L114.226,211.286 L114.226,212.406 C113.75,211.776 112.854,211.16 111.552,211.16 C109.522,211.16 107.912,212.728 107.912,215.108 C107.912,217.488 109.522,219.126 111.524,219.126 Z M111.888,217.74 C110.698,217.74 109.55,216.774 109.55,215.108 C109.55,213.442 110.698,212.546 111.888,212.546 C113.092,212.546 114.226,213.484 114.226,215.136 C114.226,216.802 113.092,217.74 111.888,217.74 Z M119.532,219 L119.532,208.64 L117.936,208.64 L117.936,219 L119.532,219 Z M124.95,219.126 C126.84,219.126 128.058,218.048 128.492,216.704 L126.77,216.704 C126.476,217.306 125.93,217.782 124.95,217.782 C123.774,217.782 122.864,217.012 122.752,215.738 L128.646,215.738 C128.688,215.472 128.702,215.22 128.702,214.954 C128.702,212.686 127.148,211.16 124.95,211.16 C122.668,211.16 121.1,212.714 121.1,215.136 C121.1,217.558 122.738,219.126 124.95,219.126 Z M127.036,214.45 L122.766,214.45 C122.934,213.232 123.802,212.504 124.88,212.504 C126.07,212.504 127.008,213.26 127.036,214.45 Z M136.99,219.126 C138.278,219.126 139.202,218.51 139.692,217.852 L139.692,219 L141.302,219 L141.302,211.286 L139.692,211.286 L139.692,212.406 C139.216,211.776 138.32,211.16 137.018,211.16 C134.988,211.16 133.378,212.728 133.378,215.108 C133.378,217.488 134.988,219.126 136.99,219.126 Z M137.354,217.74 C136.164,217.74 135.016,216.774 135.016,215.108 C135.016,213.442 136.164,212.546 137.354,212.546 C138.558,212.546 139.692,213.484 139.692,215.136 C139.692,216.802 138.558,217.74 137.354,217.74 Z M144.998,219 L144.998,214.688 C144.998,213.274 145.768,212.546 146.944,212.546 C148.106,212.546 148.876,213.274 148.876,214.688 L148.876,219 L150.458,219 L150.458,214.688 C150.458,213.274 151.228,212.546 152.404,212.546 C153.566,212.546 154.336,213.274 154.336,214.688 L154.336,219 L155.918,219 L155.918,214.45 C155.918,212.294 154.546,211.16 152.74,211.16 C151.62,211.16 150.528,211.748 150.052,212.686 C149.52,211.678 148.498,211.16 147.28,211.16 C146.356,211.16 145.516,211.538 144.998,212.168 L144.998,211.286 L143.402,211.286 L143.402,219 L144.998,219 Z M161.294,219.126 C163.506,219.126 165.298,217.558 165.298,215.136 C165.298,212.714 163.562,211.16 161.364,211.16 C159.166,211.16 157.43,212.714 157.43,215.136 C157.43,217.558 159.096,219.126 161.294,219.126 Z M161.294,217.74 C160.09,217.74 159.054,216.886 159.054,215.136 C159.054,213.386 160.132,212.546 161.336,212.546 C162.526,212.546 163.66,213.386 163.66,215.136 C163.66,216.886 162.484,217.74 161.294,217.74 Z M169.988,219.112 C170.898,219.112 171.766,218.734 172.27,218.076 L172.27,219 L173.866,219 L173.866,211.286 L172.27,211.286 L172.27,215.584 C172.27,216.998 171.5,217.726 170.324,217.726 C169.162,217.726 168.392,216.998 168.392,215.584 L168.392,211.286 L166.81,211.286 L166.81,215.822 C166.81,217.978 168.182,219.112 169.988,219.112 Z M177.562,219 L177.562,214.688 C177.562,213.274 178.332,212.546 179.508,212.546 C180.67,212.546 181.44,213.274 181.44,214.688 L181.44,219 L183.022,219 L183.022,214.45 C183.022,212.294 181.664,211.16 179.858,211.16 C178.934,211.16 178.08,211.538 177.562,212.168 L177.562,211.286 L175.966,211.286 L175.966,219 L177.562,219 Z M188.79,219 L188.79,217.67 L187.81,217.67 C187.138,217.67 186.914,217.432 186.914,216.858 L186.914,212.588 L188.79,212.588 L188.79,211.286 L186.914,211.286 L186.914,209.368 L185.304,209.368 L185.304,211.286 L184.394,211.286 L184.394,212.588 L185.304,212.588 L185.304,216.858 C185.304,218.426 186.158,219 187.53,219 L188.79,219 Z M198.59,217.516 L198.59,214.618 L201.418,214.618 L201.418,213.274 L198.59,213.274 L198.59,210.376 L197.106,210.376 L197.106,213.274 L194.278,213.274 L194.278,214.618 L197.106,214.618 L197.106,217.516 L198.59,217.516 Z M209.132,219 L209.132,209.27 L207.536,209.27 L207.536,219 L209.132,219 Z M212.828,219 L212.828,214.688 C212.828,213.274 213.598,212.546 214.774,212.546 C215.936,212.546 216.706,213.274 216.706,214.688 L216.706,219 L218.288,219 L218.288,214.45 C218.288,212.294 216.93,211.16 215.124,211.16 C214.2,211.16 213.346,211.538 212.828,212.168 L212.828,211.286 L211.232,211.286 L211.232,219 L212.828,219 Z M221.13,210.264 C221.69,210.264 222.138,209.816 222.138,209.242 C222.138,208.668 221.69,208.22 221.13,208.22 C220.556,208.22 220.108,208.668 220.108,209.242 C220.108,209.816 220.556,210.264 221.13,210.264 Z M221.914,219 L221.914,211.286 L220.318,211.286 L220.318,219 L221.914,219 Z M227.752,219 L227.752,217.67 L226.772,217.67 C226.1,217.67 225.876,217.432 225.876,216.858 L225.876,212.588 L227.752,212.588 L227.752,211.286 L225.876,211.286 L225.876,209.368 L224.266,209.368 L224.266,211.286 L223.356,211.286 L223.356,212.588 L224.266,212.588 L224.266,216.858 C224.266,218.426 225.12,219 226.492,219 L227.752,219 Z M230.034,210.264 C230.594,210.264 231.042,209.816 231.042,209.242 C231.042,208.668 230.594,208.22 230.034,208.22 C229.46,208.22 229.012,208.668 229.012,209.242 C229.012,209.816 229.46,210.264 230.034,210.264 Z M230.818,219 L230.818,211.286 L229.222,211.286 L229.222,219 L230.818,219 Z M235.998,219.126 C237.286,219.126 238.21,218.51 238.7,217.852 L238.7,219 L240.31,219 L240.31,211.286 L238.7,211.286 L238.7,212.406 C238.224,211.776 237.328,211.16 236.026,211.16 C233.996,211.16 232.386,212.728 232.386,215.108 C232.386,217.488 233.996,219.126 235.998,219.126 Z M236.362,217.74 C235.172,217.74 234.024,216.774 234.024,215.108 C234.024,213.442 235.172,212.546 236.362,212.546 C237.566,212.546 238.7,213.484 238.7,215.136 C238.7,216.802 237.566,217.74 236.362,217.74 Z M244.006,219 L244.006,208.64 L242.41,208.64 L242.41,219 L244.006,219 Z M254.632,219 L254.632,217.712 L251.342,217.712 L251.342,209.27 L249.746,209.27 L249.746,219 L254.632,219 Z M256.774,210.264 C257.334,210.264 257.782,209.816 257.782,209.242 C257.782,208.668 257.334,208.22 256.774,208.22 C256.2,208.22 255.752,208.668 255.752,209.242 C255.752,209.816 256.2,210.264 256.774,210.264 Z M257.558,219 L257.558,211.286 L255.962,211.286 L255.962,219 L257.558,219 Z M267.05,222.668 L267.05,211.286 L265.44,211.286 L265.44,212.406 C264.992,211.776 264.054,211.16 262.78,211.16 C260.736,211.16 259.126,212.728 259.126,215.108 C259.126,217.488 260.736,219.126 262.724,219.126 C264.026,219.126 264.992,218.482 265.44,217.88 L265.44,222.668 L267.05,222.668 Z M263.102,217.74 C261.912,217.74 260.764,216.774 260.764,215.108 C260.764,213.442 261.912,212.546 263.102,212.546 C264.306,212.546 265.44,213.484 265.44,215.136 C265.44,216.802 264.306,217.74 263.102,217.74 Z M272.258,219.112 C273.168,219.112 274.036,218.734 274.54,218.076 L274.54,219 L276.136,219 L276.136,211.286 L274.54,211.286 L274.54,215.584 C274.54,216.998 273.77,217.726 272.594,217.726 C271.432,217.726 270.662,216.998 270.662,215.584 L270.662,211.286 L269.08,211.286 L269.08,215.822 C269.08,217.978 270.452,219.112 272.258,219.112 Z M279.048,210.264 C279.608,210.264 280.056,209.816 280.056,209.242 C280.056,208.668 279.608,208.22 279.048,208.22 C278.474,208.22 278.026,208.668 278.026,209.242 C278.026,209.816 278.474,210.264 279.048,210.264 Z M279.832,219 L279.832,211.286 L278.236,211.286 L278.236,219 L279.832,219 Z M285.04,219.126 C286.3,219.126 287.224,218.538 287.714,217.838 L287.714,219 L289.324,219 L289.324,208.64 L287.714,208.64 L287.714,212.364 C287.126,211.636 286.062,211.16 285.054,211.16 C283.01,211.16 281.4,212.728 281.4,215.108 C281.4,217.488 283.01,219.126 285.04,219.126 Z M285.376,217.74 C284.186,217.74 283.038,216.774 283.038,215.108 C283.038,213.442 284.186,212.546 285.376,212.546 C286.58,212.546 287.714,213.484 287.714,215.136 C287.714,216.802 286.58,217.74 285.376,217.74 Z M292.236,210.264 C292.796,210.264 293.244,209.816 293.244,209.242 C293.244,208.668 292.796,208.22 292.236,208.22 C291.662,208.22 291.214,208.668 291.214,209.242 C291.214,209.816 291.662,210.264 292.236,210.264 Z M293.02,219 L293.02,211.286 L291.424,211.286 L291.424,219 L293.02,219 Z M298.858,219 L298.858,217.67 L297.878,217.67 C297.206,217.67 296.982,217.432 296.982,216.858 L296.982,212.588 L298.858,212.588 L298.858,211.286 L296.982,211.286 L296.982,209.368 L295.372,209.368 L295.372,211.286 L294.462,211.286 L294.462,212.588 L295.372,212.588 L295.372,216.858 C295.372,218.426 296.226,219 297.598,219 L298.858,219 Z M302.54,222.626 L307.272,211.286 L305.62,211.286 L303.366,217.166 L301.196,211.286 L299.418,211.286 L302.456,218.874 L300.888,222.626 L302.54,222.626 Z" id="Presaleamount+InitialLiquidity" fill-opacity="0.7" fill="#FFFFFF" fill-rule="nonzero"></path></g><g id="Group-14" transform="translate(350.000000, 146.000000)"><circle id="Oval-Copy" fill="#2DD577" opacity="0.900000036" cx="113.5" cy="113.5" r="113.5"></circle><path d="M101.175,114.09 C107.055,114.09 108.795,109.95 108.795,102.48 C108.795,95.82 107.055,91.59 100.815,91.59 C96.165,91.59 93.285,94.47 93.285,98.91 C93.285,103.56 96.165,105.9 99.915,105.9 C101.775,105.9 103.395,105.18 104.265,103.95 C104.265,108.12 103.515,109.95 101.355,109.95 C99.765,109.95 98.895,109.11 98.595,107.58 L93.855,107.58 C94.095,110.94 96.405,114.09 101.175,114.09 Z M101.085,101.85 C99.075,101.85 98.115,100.62 98.115,98.97 C98.115,97.14 99.195,96 100.965,96 C102.705,96 103.845,97.05 103.845,99 C103.845,100.77 102.765,101.85 101.085,101.85 Z M116.115,102.69 C118.965,102.69 121.095,100.95 121.095,97.62 C121.095,94.29 118.965,92.55 116.115,92.55 C113.265,92.55 111.105,94.29 111.105,97.62 C111.105,100.95 113.265,102.69 116.115,102.69 Z M119.925,114 L131.475,92.88 L126.525,92.88 L114.975,114 L119.925,114 Z M116.085,99.66 C115.185,99.66 114.645,99.03 114.645,97.62 C114.645,96.18 115.185,95.55 116.085,95.55 C116.985,95.55 117.555,96.18 117.555,97.62 C117.555,99.03 116.985,99.66 116.085,99.66 Z M130.365,114.33 C133.215,114.33 135.345,112.59 135.345,109.26 C135.345,105.9 133.215,104.19 130.365,104.19 C127.515,104.19 125.385,105.9 125.385,109.26 C125.385,112.59 127.515,114.33 130.365,114.33 Z M130.335,111.3 C129.435,111.3 128.895,110.67 128.895,109.26 C128.895,107.85 129.435,107.19 130.335,107.19 C131.235,107.19 131.805,107.85 131.805,109.26 C131.805,110.67 131.235,111.3 130.335,111.3 Z" id="9%" fill="#FFFFFF" fill-rule="nonzero"></path><path d="M27.701,140.084 C29.731,140.084 31.481,139.076 32.223,137.172 L30.305,137.172 C29.787,138.208 28.863,138.698 27.701,138.698 C25.769,138.698 24.369,137.312 24.369,135.114 C24.369,132.916 25.769,131.544 27.701,131.544 C28.863,131.544 29.787,132.034 30.305,133.07 L32.223,133.07 C31.481,131.166 29.731,130.144 27.701,130.144 C24.957,130.144 22.731,132.202 22.731,135.114 C22.731,138.04 24.957,140.084 27.701,140.084 Z M37.431,140.126 C39.643,140.126 41.435,138.558 41.435,136.136 C41.435,133.714 39.699,132.16 37.501,132.16 C35.303,132.16 33.567,133.714 33.567,136.136 C33.567,138.558 35.233,140.126 37.431,140.126 Z M37.431,138.74 C36.227,138.74 35.191,137.886 35.191,136.136 C35.191,134.386 36.269,133.546 37.473,133.546 C38.663,133.546 39.797,134.386 39.797,136.136 C39.797,137.886 38.621,138.74 37.431,138.74 Z M44.613,140 L44.613,135.688 C44.613,134.274 45.383,133.546 46.559,133.546 C47.721,133.546 48.491,134.274 48.491,135.688 L48.491,140 L50.073,140 L50.073,135.688 C50.073,134.274 50.843,133.546 52.019,133.546 C53.181,133.546 53.951,134.274 53.951,135.688 L53.951,140 L55.533,140 L55.533,135.45 C55.533,133.294 54.161,132.16 52.355,132.16 C51.235,132.16 50.143,132.748 49.667,133.686 C49.135,132.678 48.113,132.16 46.895,132.16 C45.971,132.16 45.131,132.538 44.613,133.168 L44.613,132.286 L43.017,132.286 L43.017,140 L44.613,140 Z M59.159,140 L59.159,135.688 C59.159,134.274 59.929,133.546 61.105,133.546 C62.267,133.546 63.037,134.274 63.037,135.688 L63.037,140 L64.619,140 L64.619,135.688 C64.619,134.274 65.389,133.546 66.565,133.546 C67.727,133.546 68.497,134.274 68.497,135.688 L68.497,140 L70.079,140 L70.079,135.45 C70.079,133.294 68.707,132.16 66.901,132.16 C65.781,132.16 64.689,132.748 64.213,133.686 C63.681,132.678 62.659,132.16 61.441,132.16 C60.517,132.16 59.677,132.538 59.159,133.168 L59.159,132.286 L57.563,132.286 L57.563,140 L59.159,140 Z M75.217,140.112 C76.127,140.112 76.995,139.734 77.499,139.076 L77.499,140 L79.095,140 L79.095,132.286 L77.499,132.286 L77.499,136.584 C77.499,137.998 76.729,138.726 75.553,138.726 C74.391,138.726 73.621,137.998 73.621,136.584 L73.621,132.286 L72.039,132.286 L72.039,136.822 C72.039,138.978 73.411,140.112 75.217,140.112 Z M82.791,140 L82.791,135.688 C82.791,134.274 83.561,133.546 84.737,133.546 C85.899,133.546 86.669,134.274 86.669,135.688 L86.669,140 L88.251,140 L88.251,135.45 C88.251,133.294 86.893,132.16 85.087,132.16 C84.163,132.16 83.309,132.538 82.791,133.168 L82.791,132.286 L81.195,132.286 L81.195,140 L82.791,140 Z M91.093,131.264 C91.653,131.264 92.101,130.816 92.101,130.242 C92.101,129.668 91.653,129.22 91.093,129.22 C90.519,129.22 90.071,129.668 90.071,130.242 C90.071,130.816 90.519,131.264 91.093,131.264 Z M91.877,140 L91.877,132.286 L90.281,132.286 L90.281,140 L91.877,140 Z M97.715,140 L97.715,138.67 L96.735,138.67 C96.063,138.67 95.839,138.432 95.839,137.858 L95.839,133.588 L97.715,133.588 L97.715,132.286 L95.839,132.286 L95.839,130.368 L94.229,130.368 L94.229,132.286 L93.319,132.286 L93.319,133.588 L94.229,133.588 L94.229,137.858 C94.229,139.426 95.083,140 96.455,140 L97.715,140 Z M101.397,143.626 L106.129,132.286 L104.477,132.286 L102.223,138.166 L100.053,132.286 L98.275,132.286 L101.313,139.874 L99.745,143.626 L101.397,143.626 Z M114.151,140 C117.273,140 119.317,138.166 119.317,135.17 C119.317,132.16 117.273,130.27 114.151,130.27 L110.973,130.27 L110.973,140 L114.151,140 Z M114.151,138.698 L112.569,138.698 L112.569,131.572 L114.151,131.572 C116.447,131.572 117.679,132.944 117.679,135.17 C117.679,137.382 116.447,138.698 114.151,138.698 Z M124.217,140.126 C126.107,140.126 127.325,139.048 127.759,137.704 L126.037,137.704 C125.743,138.306 125.197,138.782 124.217,138.782 C123.041,138.782 122.131,138.012 122.019,136.738 L127.913,136.738 C127.955,136.472 127.969,136.22 127.969,135.954 C127.969,133.686 126.415,132.16 124.217,132.16 C121.935,132.16 120.367,133.714 120.367,136.136 C120.367,138.558 122.005,140.126 124.217,140.126 Z M126.303,135.45 L122.033,135.45 C122.201,134.232 123.069,133.504 124.147,133.504 C125.337,133.504 126.275,134.26 126.303,135.45 Z M133.457,140 L136.397,132.286 L134.703,132.286 L132.519,138.572 L130.335,132.286 L128.627,132.286 L131.553,140 L133.457,140 Z M140.919,140.126 C142.809,140.126 144.027,139.048 144.461,137.704 L142.739,137.704 C142.445,138.306 141.899,138.782 140.919,138.782 C139.743,138.782 138.833,138.012 138.721,136.738 L144.615,136.738 C144.657,136.472 144.671,136.22 144.671,135.954 C144.671,133.686 143.117,132.16 140.919,132.16 C138.637,132.16 137.069,133.714 137.069,136.136 C137.069,138.558 138.707,140.126 140.919,140.126 Z M143.005,135.45 L138.735,135.45 C138.903,134.232 139.771,133.504 140.849,133.504 C142.039,133.504 142.977,134.26 143.005,135.45 Z M147.835,140 L147.835,129.64 L146.239,129.64 L146.239,140 L147.835,140 Z M153.281,140.126 C155.493,140.126 157.285,138.558 157.285,136.136 C157.285,133.714 155.549,132.16 153.351,132.16 C151.153,132.16 149.417,133.714 149.417,136.136 C149.417,138.558 151.083,140.126 153.281,140.126 Z M153.281,138.74 C152.077,138.74 151.041,137.886 151.041,136.136 C151.041,134.386 152.119,133.546 153.323,133.546 C154.513,133.546 155.647,134.386 155.647,136.136 C155.647,137.886 154.471,138.74 153.281,138.74 Z M160.463,143.668 L160.463,138.88 C160.967,139.482 161.877,140.126 163.151,140.126 C165.181,140.126 166.777,138.488 166.777,136.108 C166.777,133.728 165.181,132.16 163.151,132.16 C161.891,132.16 160.953,132.776 160.463,133.42 L160.463,132.286 L158.867,132.286 L158.867,143.668 L160.463,143.668 Z M162.801,138.74 C161.611,138.74 160.463,137.802 160.463,136.136 C160.463,134.484 161.611,133.546 162.801,133.546 C164.005,133.546 165.153,134.442 165.153,136.108 C165.153,137.774 164.005,138.74 162.801,138.74 Z M169.955,140 L169.955,135.688 C169.955,134.274 170.725,133.546 171.901,133.546 C173.063,133.546 173.833,134.274 173.833,135.688 L173.833,140 L175.415,140 L175.415,135.688 C175.415,134.274 176.185,133.546 177.361,133.546 C178.523,133.546 179.293,134.274 179.293,135.688 L179.293,140 L180.875,140 L180.875,135.45 C180.875,133.294 179.503,132.16 177.697,132.16 C176.577,132.16 175.485,132.748 175.009,133.686 C174.477,132.678 173.455,132.16 172.237,132.16 C171.313,132.16 170.473,132.538 169.955,133.168 L169.955,132.286 L168.359,132.286 L168.359,140 L169.955,140 Z M186.223,140.126 C188.113,140.126 189.331,139.048 189.765,137.704 L188.043,137.704 C187.749,138.306 187.203,138.782 186.223,138.782 C185.047,138.782 184.137,138.012 184.025,136.738 L189.919,136.738 C189.961,136.472 189.975,136.22 189.975,135.954 C189.975,133.686 188.421,132.16 186.223,132.16 C183.941,132.16 182.373,133.714 182.373,136.136 C182.373,138.558 184.011,140.126 186.223,140.126 Z M188.309,135.45 L184.039,135.45 C184.207,134.232 185.075,133.504 186.153,133.504 C187.343,133.504 188.281,134.26 188.309,135.45 Z M193.139,140 L193.139,135.688 C193.139,134.274 193.909,133.546 195.085,133.546 C196.247,133.546 197.017,134.274 197.017,135.688 L197.017,140 L198.599,140 L198.599,135.45 C198.599,133.294 197.241,132.16 195.435,132.16 C194.511,132.16 193.657,132.538 193.139,133.168 L193.139,132.286 L191.543,132.286 L191.543,140 L193.139,140 Z M204.367,140 L204.367,138.67 L203.387,138.67 C202.715,138.67 202.491,138.432 202.491,137.858 L202.491,133.588 L204.367,133.588 L204.367,132.286 L202.491,132.286 L202.491,130.368 L200.881,130.368 L200.881,132.286 L199.971,132.286 L199.971,133.588 L200.881,133.588 L200.881,137.858 C200.881,139.426 201.735,140 203.107,140 L204.367,140 Z" id="CommunityDevelopment" fill-opacity="0.7" fill="#FFFFFF" fill-rule="nonzero"></path></g><g id="Group-15" transform="translate(220.000000, 342.000000)"><circle id="Oval-Copy-2" fill="#CA35F2" opacity="0.900000036" cx="65" cy="65" r="65"></circle><path d="M51.645,62.18 C56.235,62.18 58.875,59.54 58.875,55.85 C58.875,52.97 57.375,51.29 55.185,50.57 L55.185,50.45 C56.685,49.94 58.485,48.41 58.485,45.53 C58.485,42.23 55.995,39.59 51.375,39.59 C46.905,39.59 44.085,41.96 43.905,46.28 L48.915,46.28 C49.005,45.08 49.605,43.88 51.255,43.88 C52.635,43.88 53.505,44.69 53.505,46.16 C53.505,48.14 51.825,48.56 50.085,48.56 L49.125,48.56 L49.125,52.73 L50.085,52.73 C52.755,52.73 53.925,53.51 53.925,55.46 C53.925,56.9 53.055,57.92 51.465,57.92 C49.575,57.92 48.645,56.78 48.615,55.07 L43.635,55.07 C43.785,60.02 47.085,62.18 51.645,62.18 Z M66.465,50.69 C69.315,50.69 71.445,48.95 71.445,45.62 C71.445,42.29 69.315,40.55 66.465,40.55 C63.615,40.55 61.455,42.29 61.455,45.62 C61.455,48.95 63.615,50.69 66.465,50.69 Z M70.275,62 L81.825,40.88 L76.875,40.88 L65.325,62 L70.275,62 Z M66.435,47.66 C65.535,47.66 64.995,47.03 64.995,45.62 C64.995,44.18 65.535,43.55 66.435,43.55 C67.335,43.55 67.905,44.18 67.905,45.62 C67.905,47.03 67.335,47.66 66.435,47.66 Z M80.715,62.33 C83.565,62.33 85.695,60.59 85.695,57.26 C85.695,53.9 83.565,52.19 80.715,52.19 C77.865,52.19 75.735,53.9 75.735,57.26 C75.735,60.59 77.865,62.33 80.715,62.33 Z M80.685,59.3 C79.785,59.3 79.245,58.67 79.245,57.26 C79.245,55.85 79.785,55.19 80.685,55.19 C81.585,55.19 82.155,55.85 82.155,57.26 C82.155,58.67 81.585,59.3 80.685,59.3 Z" id="3%" fill="#FFFFFF" fill-rule="nonzero"></path><path d="M12.843,88 L12.843,81.336 L15.825,88 L16.931,88 L19.899,81.336 L19.899,88 L21.495,88 L21.495,78.27 L19.787,78.27 L16.385,85.9 L12.969,78.27 L11.247,78.27 L11.247,88 L12.843,88 Z M26.675,88.126 C27.963,88.126 28.887,87.51 29.377,86.852 L29.377,88 L30.987,88 L30.987,80.286 L29.377,80.286 L29.377,81.406 C28.901,80.776 28.005,80.16 26.703,80.16 C24.673,80.16 23.063,81.728 23.063,84.108 C23.063,86.488 24.673,88.126 26.675,88.126 Z M27.039,86.74 C25.849,86.74 24.701,85.774 24.701,84.108 C24.701,82.442 25.849,81.546 27.039,81.546 C28.243,81.546 29.377,82.484 29.377,84.136 C29.377,85.802 28.243,86.74 27.039,86.74 Z M34.683,88 L34.683,83.94 C34.683,82.302 35.411,81.812 36.587,81.812 L36.993,81.812 L36.993,80.16 C35.901,80.16 35.131,80.636 34.683,81.406 L34.683,80.286 L33.087,80.286 L33.087,88 L34.683,88 Z M40.059,88 L40.059,84.682 L42.915,88 L45.071,88 L41.515,84.15 L45.071,80.286 L42.859,80.286 L40.059,83.66 L40.059,77.64 L38.463,77.64 L38.463,88 L40.059,88 Z M49.537,88.126 C51.427,88.126 52.645,87.048 53.079,85.704 L51.357,85.704 C51.063,86.306 50.517,86.782 49.537,86.782 C48.361,86.782 47.451,86.012 47.339,84.738 L53.233,84.738 C53.275,84.472 53.289,84.22 53.289,83.954 C53.289,81.686 51.735,80.16 49.537,80.16 C47.255,80.16 45.687,81.714 45.687,84.136 C45.687,86.558 47.325,88.126 49.537,88.126 Z M51.623,83.45 L47.353,83.45 C47.521,82.232 48.389,81.504 49.467,81.504 C50.657,81.504 51.595,82.26 51.623,83.45 Z M58.595,88 L58.595,86.67 L57.615,86.67 C56.943,86.67 56.719,86.432 56.719,85.858 L56.719,81.588 L58.595,81.588 L58.595,80.286 L56.719,80.286 L56.719,78.368 L55.109,78.368 L55.109,80.286 L54.199,80.286 L54.199,81.588 L55.109,81.588 L55.109,85.858 C55.109,87.426 55.963,88 57.335,88 L58.595,88 Z M60.877,79.264 C61.437,79.264 61.885,78.816 61.885,78.242 C61.885,77.668 61.437,77.22 60.877,77.22 C60.303,77.22 59.855,77.668 59.855,78.242 C59.855,78.816 60.303,79.264 60.877,79.264 Z M61.661,88 L61.661,80.286 L60.065,80.286 L60.065,88 L61.661,88 Z M65.357,88 L65.357,83.688 C65.357,82.274 66.127,81.546 67.303,81.546 C68.465,81.546 69.235,82.274 69.235,83.688 L69.235,88 L70.817,88 L70.817,83.45 C70.817,81.294 69.459,80.16 67.653,80.16 C66.729,80.16 65.875,80.538 65.357,81.168 L65.357,80.286 L63.761,80.286 L63.761,88 L65.357,88 Z M76.473,91.808 C78.881,91.808 80.239,90.226 80.239,88.126 L80.239,80.286 L78.629,80.286 L78.629,81.406 C78.153,80.748 77.215,80.16 75.955,80.16 C73.925,80.16 72.315,81.728 72.315,84.108 C72.315,86.488 73.925,88.126 75.955,88.126 C77.215,88.126 78.139,87.496 78.629,86.838 L78.629,88.126 C78.629,89.666 77.705,90.422 76.473,90.422 C75.367,90.422 74.513,89.876 74.275,89.078 L72.693,89.078 C72.889,90.786 74.415,91.808 76.473,91.808 Z M76.291,86.74 C75.101,86.74 73.953,85.774 73.953,84.108 C73.953,82.442 75.101,81.546 76.291,81.546 C77.495,81.546 78.629,82.484 78.629,84.136 C78.629,85.802 77.495,86.74 76.291,86.74 Z M87.575,88 L87.575,83.744 L90.795,83.744 L90.795,82.442 L87.575,82.442 L87.575,79.572 L91.705,79.572 L91.705,78.27 L85.979,78.27 L85.979,88 L87.575,88 Z M96.297,88.112 C97.207,88.112 98.075,87.734 98.579,87.076 L98.579,88 L100.175,88 L100.175,80.286 L98.579,80.286 L98.579,84.584 C98.579,85.998 97.809,86.726 96.633,86.726 C95.471,86.726 94.701,85.998 94.701,84.584 L94.701,80.286 L93.119,80.286 L93.119,84.822 C93.119,86.978 94.491,88.112 96.297,88.112 Z M103.871,88 L103.871,83.688 C103.871,82.274 104.641,81.546 105.817,81.546 C106.979,81.546 107.749,82.274 107.749,83.688 L107.749,88 L109.331,88 L109.331,83.45 C109.331,81.294 107.973,80.16 106.167,80.16 C105.243,80.16 104.389,80.538 103.871,81.168 L103.871,80.286 L102.275,80.286 L102.275,88 L103.871,88 Z M114.469,88.126 C115.729,88.126 116.653,87.538 117.143,86.838 L117.143,88 L118.753,88 L118.753,77.64 L117.143,77.64 L117.143,81.364 C116.555,80.636 115.491,80.16 114.483,80.16 C112.439,80.16 110.829,81.728 110.829,84.108 C110.829,86.488 112.439,88.126 114.469,88.126 Z M114.805,86.74 C113.615,86.74 112.467,85.774 112.467,84.108 C112.467,82.442 113.615,81.546 114.805,81.546 C116.009,81.546 117.143,82.484 117.143,84.136 C117.143,85.802 116.009,86.74 114.805,86.74 Z" id="MarketingFund" fill-opacity="0.7" fill="#FFFFFF" fill-rule="nonzero"></path></g><g id="Group-16" transform="translate(0.000000, 308.000000)"><circle id="Oval-Copy-3" fill="#F42849" opacity="0.900000036" cx="97" cy="90" r="90"></circle><path d="M89.975,91 L89.975,87.1 L92.435,87.1 L92.435,82.66 L89.975,82.66 L89.975,69.4 L84.245,69.4 L74.765,82.96 L74.765,87.1 L84.845,87.1 L84.845,91 L89.975,91 Z M85.205,82.66 L80.165,82.66 L85.205,75.04 L85.205,82.66 Z M99.545,79.69 C102.395,79.69 104.525,77.95 104.525,74.62 C104.525,71.29 102.395,69.55 99.545,69.55 C96.695,69.55 94.535,71.29 94.535,74.62 C94.535,77.95 96.695,79.69 99.545,79.69 Z M103.355,91 L114.905,69.88 L109.955,69.88 L98.405,91 L103.355,91 Z M99.515,76.66 C98.615,76.66 98.075,76.03 98.075,74.62 C98.075,73.18 98.615,72.55 99.515,72.55 C100.415,72.55 100.985,73.18 100.985,74.62 C100.985,76.03 100.415,76.66 99.515,76.66 Z M113.795,91.33 C116.645,91.33 118.775,89.59 118.775,86.26 C118.775,82.9 116.645,81.19 113.795,81.19 C110.945,81.19 108.815,82.9 108.815,86.26 C108.815,89.59 110.945,91.33 113.795,91.33 Z M113.765,88.3 C112.865,88.3 112.325,87.67 112.325,86.26 C112.325,84.85 112.865,84.19 113.765,84.19 C114.665,84.19 115.235,84.85 115.235,86.26 C115.235,87.67 114.665,88.3 113.765,88.3 Z" id="4%" fill="#FFFFFF" fill-rule="nonzero"></path><path d="M62.203,117 L62.203,108.572 L64.793,108.572 L64.793,107.27 L58.003,107.27 L58.003,108.572 L60.607,108.572 L60.607,117 L62.203,117 Z M69.721,117.126 C71.611,117.126 72.829,116.048 73.263,114.704 L71.541,114.704 C71.247,115.306 70.701,115.782 69.721,115.782 C68.545,115.782 67.635,115.012 67.523,113.738 L73.417,113.738 C73.459,113.472 73.473,113.22 73.473,112.954 C73.473,110.686 71.919,109.16 69.721,109.16 C67.439,109.16 65.871,110.714 65.871,113.136 C65.871,115.558 67.509,117.126 69.721,117.126 Z M71.807,112.45 L67.537,112.45 C67.705,111.232 68.573,110.504 69.651,110.504 C70.841,110.504 71.779,111.26 71.807,112.45 Z M78.121,117.126 C79.409,117.126 80.333,116.51 80.823,115.852 L80.823,117 L82.433,117 L82.433,109.286 L80.823,109.286 L80.823,110.406 C80.347,109.776 79.451,109.16 78.149,109.16 C76.119,109.16 74.509,110.728 74.509,113.108 C74.509,115.488 76.119,117.126 78.121,117.126 Z M78.485,115.74 C77.295,115.74 76.147,114.774 76.147,113.108 C76.147,111.442 77.295,110.546 78.485,110.546 C79.689,110.546 80.823,111.484 80.823,113.136 C80.823,114.802 79.689,115.74 78.485,115.74 Z M86.129,117 L86.129,112.688 C86.129,111.274 86.899,110.546 88.075,110.546 C89.237,110.546 90.007,111.274 90.007,112.688 L90.007,117 L91.589,117 L91.589,112.688 C91.589,111.274 92.359,110.546 93.535,110.546 C94.697,110.546 95.467,111.274 95.467,112.688 L95.467,117 L97.049,117 L97.049,112.45 C97.049,110.294 95.677,109.16 93.871,109.16 C92.751,109.16 91.659,109.748 91.183,110.686 C90.651,109.678 89.629,109.16 88.411,109.16 C87.487,109.16 86.647,109.538 86.129,110.168 L86.129,109.286 L84.533,109.286 L84.533,117 L86.129,117 Z M104.315,117 L104.315,112.744 L107.535,112.744 L107.535,111.442 L104.315,111.442 L104.315,108.572 L108.445,108.572 L108.445,107.27 L102.719,107.27 L102.719,117 L104.315,117 Z M113.037,117.112 C113.947,117.112 114.815,116.734 115.319,116.076 L115.319,117 L116.915,117 L116.915,109.286 L115.319,109.286 L115.319,113.584 C115.319,114.998 114.549,115.726 113.373,115.726 C112.211,115.726 111.441,114.998 111.441,113.584 L111.441,109.286 L109.859,109.286 L109.859,113.822 C109.859,115.978 111.231,117.112 113.037,117.112 Z M120.611,117 L120.611,112.688 C120.611,111.274 121.381,110.546 122.557,110.546 C123.719,110.546 124.489,111.274 124.489,112.688 L124.489,117 L126.071,117 L126.071,112.45 C126.071,110.294 124.713,109.16 122.907,109.16 C121.983,109.16 121.129,109.538 120.611,110.168 L120.611,109.286 L119.015,109.286 L119.015,117 L120.611,117 Z M131.209,117.126 C132.469,117.126 133.393,116.538 133.883,115.838 L133.883,117 L135.493,117 L135.493,106.64 L133.883,106.64 L133.883,110.364 C133.295,109.636 132.231,109.16 131.223,109.16 C129.179,109.16 127.569,110.728 127.569,113.108 C127.569,115.488 129.179,117.126 131.209,117.126 Z M131.545,115.74 C130.355,115.74 129.207,114.774 129.207,113.108 C129.207,111.442 130.355,110.546 131.545,110.546 C132.749,110.546 133.883,111.484 133.883,113.136 C133.883,114.802 132.749,115.74 131.545,115.74 Z" id="TeamFund" fill-opacity="0.7" fill="#FFFFFF" fill-rule="nonzero"></path></g></g></g></g></g></svg>