<svg width="37" height="30" viewBox="0 0 37 30" fill="none" xmlns="http://www.w3.org/2000/svg"><path d="M36.8168 3.55815C35.5026 4.24558 33.5233 4.56324 32.8671 4.65477C32.8617 4.62305 32.8562 4.59269 32.8508 4.56233C35.0816 3.18248 35.7645 0.584566 35.7645 0.584566C34.3829 1.37441 33.1653 1.81261 32.2481 2.0555C31.7324 2.19371 31.3114 2.26848 31.0087 2.31017C29.6184 0.884552 27.6771 0 25.5283 0C21.3004 0 17.8723 3.42719 17.8723 7.65645C17.8723 7.80871 17.8764 7.96006 17.8863 8.11006C17.9067 8.47666 17.9534 8.83691 18.0255 9.1872C15.979 9.15684 8.59221 8.52922 2.47104 1.41882C2.47104 1.41882 -0.937571 7.36598 4.79298 11.4285C4.79298 11.4285 2.47104 11.356 1.23846 10.4855C1.23846 10.4855 0.875942 16.216 7.4761 18.0286C7.4761 18.0286 5.15551 18.6096 3.99408 18.1016C3.99408 18.1016 5.15505 23.0337 10.9577 23.3971C10.9577 23.3971 6.79592 27.2072 0 26.6589C3.34245 28.7751 7.30526 30 11.554 30C23.5004 30 33.1852 20.3157 33.1852 8.36926C33.1852 8.22017 33.1838 8.07108 33.1807 7.922C33.1838 7.83363 33.1852 7.74572 33.1852 7.65645C33.1852 7.59437 33.1838 7.53229 33.1829 7.47021C35.3916 5.99837 36.8168 3.55815 36.8168 3.55815V3.55815Z" fill="white"></path></svg>